<svg width="51" height="51" viewBox="0 0 51 51" fill="none" xmlns="http://www.w3.org/2000/svg">
<path d="M25.5115 42.625L25.4999 42.625L25.4883 42.625C25.4719 42.6251 25.4556 42.622 25.4404 42.6158L24.6841 44.4673L25.4403 42.6158C25.4257 42.6098 25.4123 42.6011 25.4009 42.5901C25.4005 42.5897 25.4 42.5892 25.3996 42.5888L8.90146 26.0694C8.90047 26.0684 8.89948 26.0674 8.8985 26.0664C7.19983 24.3484 6.24707 22.0299 6.24707 19.6138C6.24707 17.1985 7.1992 14.8806 8.89681 13.1628C10.6088 11.4582 12.9263 10.501 15.3424 10.501C17.7604 10.501 20.0797 11.4597 21.792 13.1668C21.7923 13.167 21.7925 13.1672 21.7927 13.1675L24.0857 15.4605L25.4999 16.8747L26.9141 15.4605L29.2071 13.1675C29.2075 13.1671 29.2079 13.1667 29.2082 13.1664C30.9205 11.4595 33.2397 10.501 35.6574 10.501C38.0736 10.501 40.3912 11.4582 42.1032 13.1629C43.8007 14.8807 44.7528 17.1985 44.7528 19.6138C44.7528 22.0298 43.8001 24.3483 42.1015 26.0663C42.1004 26.0673 42.0994 26.0684 42.0984 26.0694L25.6002 42.5888C25.5998 42.5892 25.5993 42.5897 25.5989 42.5901C25.5875 42.6011 25.5741 42.6098 25.5595 42.6158L25.5595 42.6158C25.5442 42.622 25.5279 42.6251 25.5115 42.625Z" fill="white" stroke="#CCCCCC" stroke-width="4"/>
</svg>
